<?xml version="1.0" encoding="UTF-8" standalone="no"?>
<svg
   xmlns:osb="http://www.openswatchbook.org/uri/2009/osb"
   xmlns:dc="http://purl.org/dc/elements/1.1/"
   xmlns:cc="http://creativecommons.org/ns#"
   xmlns:rdf="http://www.w3.org/1999/02/22-rdf-syntax-ns#"
   xmlns:svg="http://www.w3.org/2000/svg"
   xmlns="http://www.w3.org/2000/svg"
   xmlns:xlink="http://www.w3.org/1999/xlink"
   xmlns:sodipodi="http://sodipodi.sourceforge.net/DTD/sodipodi-0.dtd"
   xmlns:inkscape="http://www.inkscape.org/namespaces/inkscape"
   width="176.48409mm"
   height="64.632393mm"
   viewBox="0 0 176.48409 64.632393"
   version="1.1"
   id="svg8"
   inkscape:version="1.0 (4035a4fb49, 2020-05-01)"
   sodipodi:docname="fablab-logo.svg">
  <defs
     id="defs2">
    <linearGradient
       osb:paint="solid"
       id="linearGradient933">
      <stop
         id="stop931"
         offset="0"
         style="stop-color:#c2c2c2;stop-opacity:1;" />
    </linearGradient>
    <inkscape:path-effect
       effect="bspline"
       id="path-effect905"
       is_visible="true"
       lpeversion="1"
       weight="33.333333"
       steps="2"
       helper_size="0"
       apply_no_weight="true"
       apply_with_weight="true"
       only_selected="false" />
    <inkscape:path-effect
       only_selected="false"
       apply_with_weight="true"
       apply_no_weight="true"
       helper_size="0"
       steps="2"
       weight="33.333333"
       lpeversion="1"
       is_visible="true"
       id="path-effect886"
       effect="bspline" />
    <inkscape:path-effect
       only_selected="false"
       apply_with_weight="true"
       apply_no_weight="true"
       helper_size="0"
       steps="2"
       weight="33.333333"
       lpeversion="1"
       is_visible="true"
       id="path-effect3317"
       effect="bspline" />
    <linearGradient
       osb:paint="solid"
       id="linearGradient3283">
      <stop
         id="stop3281"
         offset="0"
         style="stop-color:#08419c;stop-opacity:1;" />
    </linearGradient>
    <linearGradient
       osb:paint="solid"
       id="linearGradient3271">
      <stop
         id="stop3269"
         offset="0"
         style="stop-color:#3d97ee;stop-opacity:1;" />
    </linearGradient>
    <linearGradient
       osb:paint="solid"
       id="linearGradient3241">
      <stop
         id="stop3239"
         offset="0"
         style="stop-color:#005cb6;stop-opacity:1;" />
    </linearGradient>
    <linearGradient
       osb:paint="solid"
       id="linearGradient1245">
      <stop
         id="stop1243"
         offset="0"
         style="stop-color:#003eff;stop-opacity:1;" />
    </linearGradient>
    <linearGradient
       osb:paint="solid"
       id="linearGradient1239">
      <stop
         id="stop1237"
         offset="0"
         style="stop-color:#61baf3;stop-opacity:1;" />
    </linearGradient>
    <inkscape:path-effect
       end_linecap_type="zerowidth"
       scale_width="1"
       miter_limit="4"
       linejoin_type="extrp_arc"
       start_linecap_type="zerowidth"
       interpolator_beta="0.2"
       interpolator_type="CubicBezierJohan"
       sort_points="true"
       offset_points="0,0.1322915"
       lpeversion="1"
       is_visible="true"
       id="path-effect885"
       effect="powerstroke" />
    <inkscape:path-effect
       end_linecap_type="zerowidth"
       scale_width="1"
       miter_limit="4"
       linejoin_type="extrp_arc"
       start_linecap_type="zerowidth"
       interpolator_beta="0.2"
       interpolator_type="CubicBezierJohan"
       sort_points="true"
       offset_points="12,0.1322915"
       lpeversion="1"
       is_visible="true"
       id="path-effect879"
       effect="powerstroke" />
    <inkscape:path-effect
       fuse_tolerance="0"
       hide_knot="false"
       vertical_pattern="false"
       prop_units="false"
       tang_offset="0"
       normal_offset="0"
       spacing="0"
       scale_y_rel="false"
       prop_scale="1"
       copytype="single_stretched"
       pattern="M 0,5 C 0,2.24 2.24,0 5,0 7.76,0 10,2.24 10,5 10,7.76 7.76,10 5,10 2.24,10 0,7.76 0,5 Z"
       lpeversion="1"
       is_visible="true"
       id="path-effect873"
       effect="skeletal" />
    <linearGradient
       gradientTransform="scale(3.7795276)"
       gradientUnits="userSpaceOnUse"
       y2="122.70555"
       x2="160.95752"
       y1="122.70555"
       x1="94.827431"
       id="linearGradient3285"
       xlink:href="#linearGradient3283"
       inkscape:collect="always" />
    <linearGradient
       y2="122.70555"
       x2="160.95752"
       y1="122.70555"
       x1="94.827431"
       gradientTransform="translate(-0.18898923,0.09449329)"
       gradientUnits="userSpaceOnUse"
       id="linearGradient3371"
       xlink:href="#linearGradient3283"
       inkscape:collect="always" />
    <linearGradient
       y2="122.70555"
       x2="160.95752"
       y1="122.70555"
       x1="94.827431"
       gradientTransform="matrix(3.779315,0,0,3.7787382,0.02017667,0.10609221)"
       gradientUnits="userSpaceOnUse"
       id="linearGradient3373"
       xlink:href="#linearGradient3283"
       inkscape:collect="always" />
    <linearGradient
       y2="122.70555"
       x2="160.95752"
       y1="122.70555"
       x1="94.827431"
       gradientTransform="matrix(0.99994375,0,0,0.99979114,0.00533841,0.02807023)"
       gradientUnits="userSpaceOnUse"
       id="linearGradient3397"
       xlink:href="#linearGradient3283"
       inkscape:collect="always" />
  </defs>
  <sodipodi:namedview
     id="base"
     pagecolor="#ffffff"
     bordercolor="#666666"
     borderopacity="1.0"
     inkscape:pageopacity="0.0"
     inkscape:pageshadow="2"
     inkscape:zoom="1.4"
     inkscape:cx="413.31969"
     inkscape:cy="38.440194"
     inkscape:document-units="mm"
     inkscape:current-layer="layer2"
     inkscape:document-rotation="0"
     showgrid="false"
     inkscape:window-width="2560"
     inkscape:window-height="1377"
     inkscape:window-x="3832"
     inkscape:window-y="-8"
     inkscape:window-maximized="1" />
  <metadata
     id="metadata5">
    <rdf:RDF>
      <cc:Work
         rdf:about="">
        <dc:format>image/svg+xml</dc:format>
        <dc:type
           rdf:resource="http://purl.org/dc/dcmitype/StillImage" />
        <dc:title></dc:title>
      </cc:Work>
    </rdf:RDF>
  </metadata>
  <g
     inkscape:label="Capa 1"
     inkscape:groupmode="layer"
     id="layer1"
     transform="translate(-14.382595,-63.97683)">
    <g
       transform="matrix(2.6530728,0,0,2.7245689,-236.83185,-238.15517)"
       id="g3395">
      <text
         transform="translate(2.1733631,3.8270089)"
         id="text878"
         y="118.39229"
         x="97.027176"
         style="font-size:4.23333px;line-height:1.25;font-family:sans-serif;white-space:pre;inline-size:40.7139;stroke-width:0.264583"
         xml:space="preserve"><tspan
           x="97.027176"
           y="118.39229"><tspan
             style="font-size:4.23333px;stroke-width:0.264583">Fablab </tspan><tspan
             style="font-size:4.23333px;stroke-width:0.264583">Santander</tspan></tspan></text>
      <path
         id="path3358"
         style="fill:url(#linearGradient3397);fill-opacity:1;fill-rule:nonzero;stroke:#19334d;stroke-width:0.418793px;stroke-linecap:butt;stroke-linejoin:miter;stroke-opacity:1"
         d="m 130.68039,111.10381 c -3.51702,-0.0758 -7.23983,1.40511 -11.21326,5.30665 0.4552,-0.26058 0.82949,-0.56758 1.29139,-0.83199 3.30192,-1.07042 8.08957,-2.9018 13.62087,-0.91829 7.4391,5.0213 4.13914,10.23731 -3.28248,14.66216 l -1.6366,0.0527 h -0.003 c -3.81007,-0.17984 -10.30994,-1.03043 -13.04313,-3.56568 -0.0192,-0.0155 -0.0619,0.0155 -0.0811,0 -0.0192,-0.0156 0.0243,-0.0566 0,-0.0656 -0.0486,-0.0197 -0.12449,0.031 -0.16279,0 -0.0383,-0.0311 0.0242,-0.0925 0,-0.13177 -0.0243,-0.0393 -0.11049,-0.0111 -0.16329,0 -4.04684,1.17367 -16.517412,4.23853 -21.109825,4.87722 v 10e-4 c 8.942415,3.17472 21.591365,5.67006 29.217855,2.29598 1.30833,-0.5519 2.56749,-1.12658 3.76669,-1.71876 -0.0583,0.029 -0.11909,0.0604 -0.17673,0.0889 l 32.92667,0.57102 c -0.20382,-0.1751 0.0973,0.0511 -0.32297,-0.0692 -0.0254,-0.007 0.0189,-0.053 0,-0.0693 -0.0381,-0.0327 -0.12323,0.0327 -0.16124,0 -0.019,-0.0164 0.019,-0.0529 0,-0.0692 -8.68277,-3.31367 -17.97846,-20.16833 -29.46739,-20.41583 z m 0.45062,18.21749 c -0.9536,0.56275 -2.14102,1.19388 -3.23236,1.73788 z"
         sodipodi:nodetypes="cccccccccccccccccccccsccccc" />
      <path
         sodipodi:nodetypes="cc"
         id="path904"
         d="m 140.6903,121.22404 c 4.64965,4.09814 9.22315,8.29775 14.85161,8.66322"
         style="fill:none;stroke:#005cb6;stroke-width:0.418848px;stroke-linecap:butt;stroke-linejoin:miter;stroke-opacity:1" />
      <path
         sodipodi:nodetypes="cc"
         id="path906"
         d="m 139.73526,124.10787 c 1.95992,2.14383 4.1232,5.18517 5.89233,6.44553"
         style="fill:none;stroke:#005cb6;stroke-width:0.418848px;stroke-linecap:butt;stroke-linejoin:miter;stroke-opacity:1" />
    </g>
  </g>
  <g
     inkscape:groupmode="layer"
     id="layer2"
     inkscape:label="Capa 2"
     transform="translate(-14.382595,-63.97683)">
    <path
       transform="scale(0.26458333)"
       id="path917"
       d=""
       style="fill:#c2c2c2;fill-opacity:1;stroke:none;stroke-width:0;paint-order:fill markers stroke" />
    <path
       sodipodi:nodetypes="csscsssssssscscsssscsssssscscsssscc"
       id="path919"
       d="m 56.21784,118.38769 c -0.07478,-0.11314 -0.106811,-0.23212 -0.133341,-0.49546 -0.03536,-0.35091 0.0054,-0.51135 0.171744,-0.6757 0.07154,-0.0707 0.08671,-0.0776 0.205265,-0.0931 0.236088,-0.0309 0.501742,-0.0368 1.50621,-0.0338 0.752119,0.002 0.906321,0.004 3.646648,0.0369 1.054787,0.0127 2.36046,0.0283 2.901482,0.0345 0.541027,0.006 1.092486,0.0136 1.225462,0.0161 0.281751,0.005 2.257164,0.0282 3.492812,0.0403 1.880647,0.0183 2.461639,0.009 2.641056,-0.0421 0.136055,-0.0388 0.254574,-0.18472 0.598433,-0.73655 0.294833,-0.47317 0.449303,-0.67476 0.778612,-1.01615 0.358984,-0.37213 0.40071,-0.39772 0.86235,-0.5284 1.130396,-0.32005 1.731369,-0.30163 2.446041,0.075 0.402545,0.21212 0.934608,0.59381 1.307189,0.93774 0.320328,0.29566 0.377346,0.38663 0.255028,0.40679 -0.114275,0.0188 -0.620401,0.0459 -1.623922,0.0869 -1.538155,0.0627 -1.598509,0.0721 -1.8073,0.27564 -0.127501,0.12431 -0.195128,0.25479 -0.218438,0.42151 -0.05698,0.40743 0.01728,1.14092 0.150183,1.48388 0.03823,0.0987 0.17174,0.2401 0.283029,0.29983 0.103418,0.0555 0.541426,0.0926 1.712029,0.14501 1.246394,0.0558 1.728768,0.0911 1.732684,0.12693 0.0063,0.0592 -0.447337,0.52976 -0.7768,0.80555 -0.769063,0.64376 -1.297058,0.86453 -1.970207,0.82384 -0.528851,-0.0319 -1.438136,-0.25166 -1.702772,-0.41142 -0.06331,-0.0382 -0.191368,-0.14531 -0.389138,-0.32551 -0.328434,-0.29921 -0.466547,-0.45298 -0.795841,-0.88572 -0.315923,-0.41518 -0.526113,-0.67548 -0.592265,-0.73343 -0.0963,-0.0844 -0.318788,-0.14383 -0.576155,-0.15396 -0.09658,-0.004 -0.56292,0.002 -1.355274,0.0178 -1.329878,0.0258 -3.57813,0.0775 -6.537931,0.1504 -6.670425,0.16435 -7.057559,0.17081 -7.210903,0.12047 -0.09659,-0.0317 -0.168794,-0.0872 -0.226019,-0.1738 z"
       style="fill:#005cb6;fill-opacity:1;stroke:none;stroke-width:0;stroke-opacity:1;paint-order:fill markers stroke" />
  </g>
</svg>
