<?xml version="1.0" encoding="UTF-8" standalone="no"?>
<svg
   xmlns:osb="http://www.openswatchbook.org/uri/2009/osb"
   xmlns:dc="http://purl.org/dc/elements/1.1/"
   xmlns:cc="http://creativecommons.org/ns#"
   xmlns:rdf="http://www.w3.org/1999/02/22-rdf-syntax-ns#"
   xmlns:svg="http://www.w3.org/2000/svg"
   xmlns="http://www.w3.org/2000/svg"
   xmlns:xlink="http://www.w3.org/1999/xlink"
   xmlns:sodipodi="http://sodipodi.sourceforge.net/DTD/sodipodi-0.dtd"
   xmlns:inkscape="http://www.inkscape.org/namespaces/inkscape"
   width="176.48409mm"
   height="64.632393mm"
   viewBox="0 0 176.48409 64.632393"
   version="1.1"
   id="svg8"
   inkscape:version="1.0 (4035a4fb49, 2020-05-01)"
   sodipodi:docname="fablab-logo.svg">
  <defs
     id="defs2">
    <linearGradient
       osb:paint="solid"
       id="linearGradient933">
      <stop
         id="stop931"
         offset="0"
         style="stop-color:#c2c2c2;stop-opacity:1;" />
    </linearGradient>
    <inkscape:path-effect
       effect="bspline"
       id="path-effect905"
       is_visible="true"
       lpeversion="1"
       weight="33.333333"
       steps="2"
       helper_size="0"
       apply_no_weight="true"
       apply_with_weight="true"
       only_selected="false" />
    <inkscape:path-effect
       only_selected="false"
       apply_with_weight="true"
       apply_no_weight="true"
       helper_size="0"
       steps="2"
       weight="33.333333"
       lpeversion="1"
       is_visible="true"
       id="path-effect886"
       effect="bspline" />
    <inkscape:path-effect
       only_selected="false"
       apply_with_weight="true"
       apply_no_weight="true"
       helper_size="0"
       steps="2"
       weight="33.333333"
       lpeversion="1"
       is_visible="true"
       id="path-effect3317"
       effect="bspline" />
    <linearGradient
       osb:paint="solid"
       id="linearGradient3283">
      <stop
         id="stop3281"
         offset="0"
         style="stop-color:#2c7dff;stop-opacity:1;" />
    </linearGradient>
    <linearGradient
       osb:paint="solid"
       id="linearGradient3271">
      <stop
         id="stop3269"
         offset="0"
         style="stop-color:#3d97ee;stop-opacity:1;" />
    </linearGradient>
    <linearGradient
       osb:paint="solid"
       id="linearGradient3241">
      <stop
         id="stop3239"
         offset="0"
         style="stop-color:#005cb6;stop-opacity:1;" />
    </linearGradient>
    <linearGradient
       osb:paint="solid"
       id="linearGradient1245">
      <stop
         id="stop1243"
         offset="0"
         style="stop-color:#003eff;stop-opacity:1;" />
    </linearGradient>
    <linearGradient
       osb:paint="solid"
       id="linearGradient1239">
      <stop
         id="stop1237"
         offset="0"
         style="stop-color:#61baf3;stop-opacity:1;" />
    </linearGradient>
    <inkscape:path-effect
       end_linecap_type="zerowidth"
       scale_width="1"
       miter_limit="4"
       linejoin_type="extrp_arc"
       start_linecap_type="zerowidth"
       interpolator_beta="0.2"
       interpolator_type="CubicBezierJohan"
       sort_points="true"
       offset_points="0,0.1322915"
       lpeversion="1"
       is_visible="true"
       id="path-effect885"
       effect="powerstroke" />
    <inkscape:path-effect
       end_linecap_type="zerowidth"
       scale_width="1"
       miter_limit="4"
       linejoin_type="extrp_arc"
       start_linecap_type="zerowidth"
       interpolator_beta="0.2"
       interpolator_type="CubicBezierJohan"
       sort_points="true"
       offset_points="12,0.1322915"
       lpeversion="1"
       is_visible="true"
       id="path-effect879"
       effect="powerstroke" />
    <inkscape:path-effect
       fuse_tolerance="0"
       hide_knot="false"
       vertical_pattern="false"
       prop_units="false"
       tang_offset="0"
       normal_offset="0"
       spacing="0"
       scale_y_rel="false"
       prop_scale="1"
       copytype="single_stretched"
       pattern="M 0,5 C 0,2.24 2.24,0 5,0 7.76,0 10,2.24 10,5 10,7.76 7.76,10 5,10 2.24,10 0,7.76 0,5 Z"
       lpeversion="1"
       is_visible="true"
       id="path-effect873"
       effect="skeletal" />
    <linearGradient
       gradientTransform="scale(3.7795276)"
       gradientUnits="userSpaceOnUse"
       y2="122.70555"
       x2="160.95752"
       y1="122.70555"
       x1="94.827431"
       id="linearGradient3285"
       xlink:href="#linearGradient3283"
       inkscape:collect="always" />
    <linearGradient
       y2="122.70555"
       x2="160.95752"
       y1="122.70555"
       x1="94.827431"
       gradientTransform="translate(-0.18898923,0.09449329)"
       gradientUnits="userSpaceOnUse"
       id="linearGradient3371"
       xlink:href="#linearGradient3283"
       inkscape:collect="always" />
    <linearGradient
       y2="122.70555"
       x2="160.95752"
       y1="122.70555"
       x1="94.827431"
       gradientTransform="matrix(3.779315,0,0,3.7787382,0.02017667,0.10609221)"
       gradientUnits="userSpaceOnUse"
       id="linearGradient3373"
       xlink:href="#linearGradient3283"
       inkscape:collect="always" />
    <linearGradient
       y2="122.70555"
       x2="160.95752"
       y1="122.70555"
       x1="94.827431"
       gradientTransform="matrix(3.779315,0,0,3.7787382,0.02017667,0.10609221)"
       gradientUnits="userSpaceOnUse"
       id="linearGradient3397"
       xlink:href="#linearGradient3283"
       inkscape:collect="always" />
  </defs>
  <sodipodi:namedview
     id="base"
     pagecolor="#ffffff"
     bordercolor="#666666"
     borderopacity="1.0"
     inkscape:pageopacity="0.0"
     inkscape:pageshadow="2"
     inkscape:zoom="1.4"
     inkscape:cx="240.65588"
     inkscape:cy="38.440194"
     inkscape:document-units="mm"
     inkscape:current-layer="g3383"
     inkscape:document-rotation="0"
     showgrid="false"
     inkscape:window-width="2560"
     inkscape:window-height="1377"
     inkscape:window-x="3832"
     inkscape:window-y="-8"
     inkscape:window-maximized="1" />
  <metadata
     id="metadata5">
    <rdf:RDF>
      <cc:Work
         rdf:about="">
        <dc:format>image/svg+xml</dc:format>
        <dc:type
           rdf:resource="http://purl.org/dc/dcmitype/StillImage" />
        <dc:title />
      </cc:Work>
    </rdf:RDF>
  </metadata>
  <g
     inkscape:label="Capa 1"
     inkscape:groupmode="layer"
     id="layer1"
     transform="translate(-14.382595,-63.97683)">
    <g
       transform="matrix(2.6530728,0,0,2.7245689,-236.83185,-238.15517)"
       id="g3395">
      <g
         id="g3383">
        <text
           xml:space="preserve"
           style="font-size:2.67232px;line-height:1.25;font-family:sans-serif;white-space:pre;inline-size:40.7139;stroke-width:0.264583"
           x="97.027176"
           y="118.39229"
           id="text878"
           transform="matrix(1.0539333,0,0,1.5702505,-2.6273252,-63.005578)"><tspan
             x="97.027176"
             y="118.39229"><tspan
               style="font-size:2.03994px">Circular Maker Space Santander</tspan></tspan></text>
        <path
           sodipodi:nodetypes="cccccccccccccccccccccsccccc"
           d="m 493.91016,419.91992 c -13.29268,-0.28649 -27.36314,5.31066 -42.38086,20.05664 1.72044,-0.9849 3.13509,-2.14518 4.88086,-3.14453 12.47969,-4.04568 30.57476,-10.96743 51.48046,-3.4707 28.11628,18.97811 15.64398,38.69217 -12.40624,55.41601 l -6.18555,0.19922 h -0.01 c -14.40027,-0.6797 -38.9667,-3.89454 -49.29687,-13.47656 -0.0726,-0.0586 -0.23408,0.0586 -0.30664,0 -0.0726,-0.059 0.0918,-0.21403 0,-0.24805 -0.18369,-0.0745 -0.47048,0.11717 -0.61524,0 -0.14475,-0.11754 0.0915,-0.34958 0,-0.49804 -0.0918,-0.14854 -0.41763,-0.042 -0.61719,0 -15.29514,4.43591 -62.428,16.01964 -79.78515,18.43359 v 0.004 c 33.7981,11.99894 81.60516,21.43016 110.42969,8.67773 4.94488,-2.08593 9.70388,-4.25794 14.23632,-6.49609 -0.22019,0.10968 -0.45013,0.2283 -0.66796,0.33593 l 124.44726,2.15821 c -0.77034,-0.6618 0.36776,0.19296 -1.2207,-0.26172 -0.096,-0.0265 0.0714,-0.20011 0,-0.26172 -0.144,-0.12359 -0.46575,0.12359 -0.60938,0 -0.0718,-0.062 0.0718,-0.20011 0,-0.26172 -32.8168,-12.52412 -67.95009,-76.22677 -111.37281,-77.1622 z m 1.70312,68.85352 c -3.60417,2.12693 -8.09204,4.51228 -12.2168,6.56836 z"
           style="opacity:1;fill:url(#linearGradient3397);fill-opacity:1;fill-rule:nonzero;stroke:#005cb6;stroke-width:1.58284px;stroke-linecap:butt;stroke-linejoin:miter;stroke-opacity:1"
           id="path3358"
           transform="scale(0.26458333)" />
        <path
           style="fill:none;stroke:#005cb6;stroke-width:0.418848px;stroke-linecap:butt;stroke-linejoin:miter;stroke-opacity:1"
           d="m 140.6903,121.22404 c 4.64965,4.09814 9.22315,8.29775 14.85161,8.66322"
           id="path904"
           sodipodi:nodetypes="cc" />
        <path
           style="fill:none;stroke:#005cb6;stroke-width:0.418848px;stroke-linecap:butt;stroke-linejoin:miter;stroke-opacity:1"
           d="m 139.73526,124.10787 c 1.95992,2.14383 4.1232,5.18517 5.89233,6.44553"
           id="path906"
           sodipodi:nodetypes="cc" />
      </g>
    </g>
  </g>
  <g
     inkscape:groupmode="layer"
     id="layer2"
     inkscape:label="Capa 2"
     transform="translate(-14.382595,-63.97683)">
    <path
       transform="scale(0.26458333)"
       id="path917"
       d=""
       style="fill:#c2c2c2;fill-opacity:1;stroke:none;stroke-width:0;paint-order:fill markers stroke" />
    <path
       sodipodi:nodetypes="csscsssssssscscsssscsssssscscsssscc"
       id="path919"
       d="m 56.21784,118.38769 c -0.07478,-0.11314 -0.106811,-0.23212 -0.133341,-0.49546 -0.03536,-0.35091 0.0054,-0.51135 0.171744,-0.6757 0.07154,-0.0707 0.08671,-0.0776 0.205265,-0.0931 0.236088,-0.0309 0.501742,-0.0368 1.50621,-0.0338 0.752119,0.002 0.906321,0.004 3.646648,0.0369 1.054787,0.0127 2.36046,0.0283 2.901482,0.0345 0.541027,0.006 1.092486,0.0136 1.225462,0.0161 0.281751,0.005 2.257164,0.0282 3.492812,0.0403 1.880647,0.0183 2.461639,0.009 2.641056,-0.0421 0.136055,-0.0388 0.254574,-0.18472 0.598433,-0.73655 0.294833,-0.47317 0.449303,-0.67476 0.778612,-1.01615 0.358984,-0.37213 0.40071,-0.39772 0.86235,-0.5284 1.130396,-0.32005 1.731369,-0.30163 2.446041,0.075 0.402545,0.21212 0.934608,0.59381 1.307189,0.93774 0.320328,0.29566 0.377346,0.38663 0.255028,0.40679 -0.114275,0.0188 -0.620401,0.0459 -1.623922,0.0869 -1.538155,0.0627 -1.598509,0.0721 -1.8073,0.27564 -0.127501,0.12431 -0.195128,0.25479 -0.218438,0.42151 -0.05698,0.40743 0.01728,1.14092 0.150183,1.48388 0.03823,0.0987 0.17174,0.2401 0.283029,0.29983 0.103418,0.0555 0.541426,0.0926 1.712029,0.14501 1.246394,0.0558 1.728768,0.0911 1.732684,0.12693 0.0063,0.0592 -0.447337,0.52976 -0.7768,0.80555 -0.769063,0.64376 -1.297058,0.86453 -1.970207,0.82384 -0.528851,-0.0319 -1.438136,-0.25166 -1.702772,-0.41142 -0.06331,-0.0382 -0.191368,-0.14531 -0.389138,-0.32551 -0.328434,-0.29921 -0.466547,-0.45298 -0.795841,-0.88572 -0.315923,-0.41518 -0.526113,-0.67548 -0.592265,-0.73343 -0.0963,-0.0844 -0.318788,-0.14383 -0.576155,-0.15396 -0.09658,-0.004 -0.56292,0.002 -1.355274,0.0178 -1.329878,0.0258 -3.57813,0.0775 -6.537931,0.1504 -6.670425,0.16435 -7.057559,0.17081 -7.210903,0.12047 -0.09659,-0.0317 -0.168794,-0.0872 -0.226019,-0.1738 z"
       style="fill:#005cb6;fill-opacity:1;stroke:none;stroke-width:0;stroke-opacity:1;paint-order:fill markers stroke" />
  </g>
</svg>
