<?xml version="1.0" encoding="UTF-8" standalone="no"?>
<svg
   xmlns:osb="http://www.openswatchbook.org/uri/2009/osb"
   xmlns:dc="http://purl.org/dc/elements/1.1/"
   xmlns:cc="http://creativecommons.org/ns#"
   xmlns:rdf="http://www.w3.org/1999/02/22-rdf-syntax-ns#"
   xmlns:svg="http://www.w3.org/2000/svg"
   xmlns="http://www.w3.org/2000/svg"
   xmlns:xlink="http://www.w3.org/1999/xlink"
   xmlns:sodipodi="http://sodipodi.sourceforge.net/DTD/sodipodi-0.dtd"
   xmlns:inkscape="http://www.inkscape.org/namespaces/inkscape"
   sodipodi:docname="fablab-logo-2.svg"
   inkscape:version="1.0 (4035a4fb49, 2020-05-01)"
   id="svg8"
   version="1.1"
   viewBox="0 0 176.48409 64.632393"
   height="64.632393mm"
   width="176.48409mm">
  <defs
     id="defs2">
    <linearGradient
       osb:paint="solid"
       id="linearGradient875">
      <stop
         id="stop873"
         offset="0"
         style="stop-color:#000000;stop-opacity:1;" />
    </linearGradient>
    <linearGradient
       id="linearGradient933"
       osb:paint="solid">
      <stop
         style="stop-color:#c2c2c2;stop-opacity:1;"
         offset="0"
         id="stop931" />
    </linearGradient>
    <inkscape:path-effect
       only_selected="false"
       apply_with_weight="true"
       apply_no_weight="true"
       helper_size="0"
       steps="2"
       weight="33.333333"
       lpeversion="1"
       is_visible="true"
       id="path-effect905"
       effect="bspline" />
    <inkscape:path-effect
       effect="bspline"
       id="path-effect886"
       is_visible="true"
       lpeversion="1"
       weight="33.333333"
       steps="2"
       helper_size="0"
       apply_no_weight="true"
       apply_with_weight="true"
       only_selected="false" />
    <inkscape:path-effect
       effect="bspline"
       id="path-effect3317"
       is_visible="true"
       lpeversion="1"
       weight="33.333333"
       steps="2"
       helper_size="0"
       apply_no_weight="true"
       apply_with_weight="true"
       only_selected="false" />
    <linearGradient
       id="linearGradient3283"
       osb:paint="solid">
      <stop
         style="stop-color:#08419c;stop-opacity:1;"
         offset="0"
         id="stop3281" />
    </linearGradient>
    <linearGradient
       id="linearGradient3271"
       osb:paint="solid">
      <stop
         style="stop-color:#3d97ee;stop-opacity:1;"
         offset="0"
         id="stop3269" />
    </linearGradient>
    <linearGradient
       id="linearGradient3241"
       osb:paint="solid">
      <stop
         style="stop-color:#005cb6;stop-opacity:1;"
         offset="0"
         id="stop3239" />
    </linearGradient>
    <linearGradient
       id="linearGradient1245"
       osb:paint="solid">
      <stop
         style="stop-color:#003eff;stop-opacity:1;"
         offset="0"
         id="stop1243" />
    </linearGradient>
    <linearGradient
       id="linearGradient1239"
       osb:paint="solid">
      <stop
         style="stop-color:#61baf3;stop-opacity:1;"
         offset="0"
         id="stop1237" />
    </linearGradient>
    <inkscape:path-effect
       effect="powerstroke"
       id="path-effect885"
       is_visible="true"
       lpeversion="1"
       offset_points="0,0.1322915"
       sort_points="true"
       interpolator_type="CubicBezierJohan"
       interpolator_beta="0.2"
       start_linecap_type="zerowidth"
       linejoin_type="extrp_arc"
       miter_limit="4"
       scale_width="1"
       end_linecap_type="zerowidth" />
    <inkscape:path-effect
       effect="powerstroke"
       id="path-effect879"
       is_visible="true"
       lpeversion="1"
       offset_points="12,0.1322915"
       sort_points="true"
       interpolator_type="CubicBezierJohan"
       interpolator_beta="0.2"
       start_linecap_type="zerowidth"
       linejoin_type="extrp_arc"
       miter_limit="4"
       scale_width="1"
       end_linecap_type="zerowidth" />
    <inkscape:path-effect
       effect="skeletal"
       id="path-effect873"
       is_visible="true"
       lpeversion="1"
       pattern="M 0,5 C 0,2.24 2.24,0 5,0 7.76,0 10,2.24 10,5 10,7.76 7.76,10 5,10 2.24,10 0,7.76 0,5 Z"
       copytype="single_stretched"
       prop_scale="1"
       scale_y_rel="false"
       spacing="0"
       normal_offset="0"
       tang_offset="0"
       prop_units="false"
       vertical_pattern="false"
       hide_knot="false"
       fuse_tolerance="0" />
    <linearGradient
       inkscape:collect="always"
       xlink:href="#linearGradient3283"
       id="linearGradient3285"
       x1="94.827431"
       y1="122.70555"
       x2="160.95752"
       y2="122.70555"
       gradientUnits="userSpaceOnUse"
       gradientTransform="scale(3.7795276)" />
    <linearGradient
       inkscape:collect="always"
       xlink:href="#linearGradient3283"
       id="linearGradient3371"
       gradientUnits="userSpaceOnUse"
       gradientTransform="translate(-0.18898923,0.09449329)"
       x1="94.827431"
       y1="122.70555"
       x2="160.95752"
       y2="122.70555" />
    <linearGradient
       inkscape:collect="always"
       xlink:href="#linearGradient3283"
       id="linearGradient3373"
       gradientUnits="userSpaceOnUse"
       gradientTransform="matrix(3.779315,0,0,3.7787382,0.02017667,0.10609221)"
       x1="94.827431"
       y1="122.70555"
       x2="160.95752"
       y2="122.70555" />
  </defs>
  <sodipodi:namedview
     inkscape:window-maximized="1"
     inkscape:window-y="-8"
     inkscape:window-x="3832"
     inkscape:window-height="1377"
     inkscape:window-width="2560"
     showgrid="false"
     inkscape:document-rotation="0"
     inkscape:current-layer="layer1"
     inkscape:document-units="mm"
     inkscape:cy="203.21681"
     inkscape:cx="165.4238"
     inkscape:zoom="0.98994949"
     inkscape:pageshadow="2"
     inkscape:pageopacity="0.0"
     borderopacity="1.0"
     bordercolor="#666666"
     pagecolor="#ffffff"
     id="base" />
  <metadata
     id="metadata5">
    <rdf:RDF>
      <cc:Work
         rdf:about="">
        <dc:format>image/svg+xml</dc:format>
        <dc:type
           rdf:resource="http://purl.org/dc/dcmitype/StillImage" />
        <dc:title />
      </cc:Work>
    </rdf:RDF>
  </metadata>
  <g
     transform="translate(-14.382595,-63.97683)"
     id="layer1"
     inkscape:groupmode="layer"
     inkscape:label="Capa 1">
    <text
       transform="matrix(2.6530728,0,0,2.7245689,-231.06576,-227.72822)"
       id="text878"
       y="118.39229"
       x="97.027176"
       style="font-size:4.23333px;line-height:1.25;font-family:sans-serif;white-space:pre;inline-size:40.7139;stroke-width:0.264583;fill-rule:nonzero;fill:#0a990a;fill-opacity:1;"
       xml:space="preserve"><tspan
         x="97.027176"
         y="118.39229"><tspan
           style="font-size:4.23333px;fill:#0a990a;fill-opacity:1;fill-rule:nonzero;stroke-width:0.264583">Fablab </tspan><tspan
           style="font-size:4.23333px;fill:#0a990a;fill-opacity:1;fill-rule:nonzero;stroke-width:0.264583">Santander</tspan></tspan></text>
    <path
       id="path3358"
       style="fill:none;fill-opacity:1;fill-rule:nonzero;stroke:#1388ba;stroke-width:1.12596px;stroke-linecap:butt;stroke-linejoin:miter;stroke-opacity:1"
       d="m 109.87274,64.554815 c -9.33091,-0.206522 -19.207798,3.828319 -29.749597,14.458334 1.207679,-0.709968 2.200697,-1.546411 3.426152,-2.266814 8.760234,-2.916433 21.462215,-7.906154 36.137155,-2.501945 9.76468,6.768652 12.55519,13.667162 10.49773,20.370229 -2.1011,6.845251 -9.25802,13.486681 -19.20638,19.577841 l -4.34202,0.14358 h -0.008 c -10.108395,-0.48999 -27.353023,-2.80748 -34.604376,-9.71494 -0.05094,-0.0422 -0.164225,0.0422 -0.215164,0 -0.05094,-0.0425 0.06447,-0.15421 0,-0.17873 -0.128939,-0.0537 -0.330281,0.0845 -0.431893,0 -0.101613,-0.0847 0.0642,-0.25202 0,-0.35902 -0.06447,-0.10707 -0.293138,-0.0302 -0.433221,0 -10.736561,3.19775 -43.821896,11.54817 -56.005902,13.28832 v 0.003 c 23.724878,8.64974 57.283463,15.44847 77.517096,6.25555 3.471095,-1.50369 6.811738,-3.06944 9.9933,-4.68288 -0.15467,0.079 -0.31595,0.16457 -0.46887,0.24222 l 87.35685,1.55578 c -0.54075,-0.47707 0.25814,0.13923 -0.85686,-0.18854 -0.0674,-0.0191 0.0501,-0.1444 0,-0.18881 -0.10109,-0.0891 -0.32694,0.0891 -0.42779,0 -0.0504,-0.0447 0.0504,-0.14413 0,-0.18854 -23.03602,-9.02832 -47.69816,-54.950007 -78.17913,-55.624337 z m 1.19553,49.634805 c -2.52997,1.53325 -5.68029,3.25281 -8.57569,4.73498 z"
       sodipodi:nodetypes="ccccscccccccccccccccccscccccc" />
    <path
       sodipodi:nodetypes="cc"
       id="path904"
       d="m 136.42976,92.128079 c 12.33586,11.165661 24.46969,22.607791 39.4024,23.603541"
       style="fill:none;stroke:#005cb6;stroke-width:1.12611px;stroke-linecap:butt;stroke-linejoin:miter;stroke-opacity:1" />
    <path
       sodipodi:nodetypes="cc"
       id="path906"
       d="m 133.89597,99.985273 c 5.19981,5.841017 10.93915,14.127357 15.63278,17.561287"
       style="fill:none;stroke:#005cb6;stroke-width:1.12611px;stroke-linecap:butt;stroke-linejoin:miter;stroke-opacity:1" />
  </g>
  <g
     transform="translate(-14.382595,-63.97683)"
     inkscape:label="Capa 2"
     id="layer2"
     inkscape:groupmode="layer">
    <path
       style="fill:#c2c2c2;fill-opacity:1;stroke:none;stroke-width:0;paint-order:fill markers stroke"
       d=""
       id="path917"
       transform="scale(0.26458333)" />
    <path
       style="fill:#005cb6;fill-opacity:1;stroke:none;stroke-width:0;stroke-opacity:1;paint-order:fill markers stroke"
       d="m 56.21784,118.38769 c -0.07478,-0.11314 -0.106811,-0.23212 -0.133341,-0.49546 -0.03536,-0.35091 0.0054,-0.51135 0.171744,-0.6757 0.07154,-0.0707 0.08671,-0.0776 0.205265,-0.0931 0.236088,-0.0309 0.501742,-0.0368 1.50621,-0.0338 0.752119,0.002 0.906321,0.004 3.646648,0.0369 1.054787,0.0127 2.36046,0.0283 2.901482,0.0345 0.541027,0.006 1.092486,0.0136 1.225462,0.0161 0.281751,0.005 2.257164,0.0282 3.492812,0.0403 1.880647,0.0183 2.461639,0.009 2.641056,-0.0421 0.136055,-0.0388 0.254574,-0.18472 0.598433,-0.73655 0.294833,-0.47317 0.449303,-0.67476 0.778612,-1.01615 0.358984,-0.37213 0.40071,-0.39772 0.86235,-0.5284 1.130396,-0.32005 1.731369,-0.30163 2.446041,0.075 0.402545,0.21212 0.934608,0.59381 1.307189,0.93774 0.320328,0.29566 0.377346,0.38663 0.255028,0.40679 -0.114275,0.0188 -0.620401,0.0459 -1.623922,0.0869 -1.538155,0.0627 -1.598509,0.0721 -1.8073,0.27564 -0.127501,0.12431 -0.195128,0.25479 -0.218438,0.42151 -0.05698,0.40743 0.01728,1.14092 0.150183,1.48388 0.03823,0.0987 0.17174,0.2401 0.283029,0.29983 0.103418,0.0555 0.541426,0.0926 1.712029,0.14501 1.246394,0.0558 1.728768,0.0911 1.732684,0.12693 0.0063,0.0592 -0.447337,0.52976 -0.7768,0.80555 -0.769063,0.64376 -1.297058,0.86453 -1.970207,0.82384 -0.528851,-0.0319 -1.438136,-0.25166 -1.702772,-0.41142 -0.06331,-0.0382 -0.191368,-0.14531 -0.389138,-0.32551 -0.328434,-0.29921 -0.466547,-0.45298 -0.795841,-0.88572 -0.315923,-0.41518 -0.526113,-0.67548 -0.592265,-0.73343 -0.0963,-0.0844 -0.318788,-0.14383 -0.576155,-0.15396 -0.09658,-0.004 -0.56292,0.002 -1.355274,0.0178 -1.329878,0.0258 -3.57813,0.0775 -6.537931,0.1504 -6.670425,0.16435 -7.057559,0.17081 -7.210903,0.12047 -0.09659,-0.0317 -0.168794,-0.0872 -0.226019,-0.1738 z"
       id="path919"
       sodipodi:nodetypes="csscsssssssscscsssscsssssscscsssscc" />
  </g>
</svg>
